# Blender v2.78 (sub 0) OBJ File: ''
# www.blender.org
o Cube_Cube.003
v -1.114442 -1.108206 1.108200
v -1.114442 0.891794 1.108200
v -1.114442 -1.108206 -1.998651
v -1.114442 0.891794 -1.998651
v 0.885558 -1.108206 1.988375
v 0.885558 0.891794 1.988375
v 0.885558 -1.108206 -0.891800
v 0.885558 0.891794 -0.891800
vn -1.0000 0.0000 0.0000
vn 0.4842 0.0000 -0.8749
vn 1.0000 0.0000 0.0000
vn -0.4028 0.0000 0.9153
vn 0.0000 -1.0000 0.0000
vn 0.0000 1.0000 0.0000
s off
f 2//1 3//1 1//1
f 4//2 7//2 3//2
f 8//3 5//3 7//3
f 6//4 1//4 5//4
f 7//5 1//5 3//5
f 8//6 2//6 6//6
f 2//1 4//1 3//1
f 4//2 8//2 7//2
f 8//3 6//3 5//3
f 6//4 2//4 1//4
f 7//5 5//5 1//5
f 8//6 4//6 2//6
